<svg xmlns="http://www.w3.org/2000/svg" width="15" height="15" viewBox="0 0 17 15">
    <path fill="#8E8E93" fill-rule="evenodd" d="M15.453 1.465a3.41 3.41 0 0 0-4.813 0L3.488 8.651a2.042 2.042 0 0 0 0 2.896 2.042 2.042 0 0 0 2.896 0l4.43-4.466a.674.674 0 0 0 0-.976.674.674 0 0 0-.977 0l-4.465 4.43a.653.653 0 0 1-.907 0 .653.653 0 0 1 0-.907l7.151-7.186a2.022 2.022 0 0 1 2.826 0 2.022 2.022 0 0 1 0 2.825L7.29 12.453c-1.326 1.326-3.454 1.326-4.744 0C1.22 11.128 1.22 9 2.547 7.71l6.418-6.418a.674.674 0 0 0 0-.977.674.674 0 0 0-.977 0L1.57 6.698c-1.85 1.849-1.85 4.883 0 6.732 1.849 1.85 4.883 1.85 6.732 0l7.151-7.15a3.41 3.41 0 0 0 0-4.815z"/>
</svg>
