<svg xmlns="http://www.w3.org/2000/svg" width="15" height="15" viewBox="0 0 15 15">
    <path fill="#8E8E93" fill-rule="evenodd" d="M14.748 5.564A7.5 7.5 0 1 1 9.438.252c.224.06.573.382.366.812-.208.43-.633.326-.633.326a6.333 6.333 0 1 0 4.45 4.48c-.045-.173-.023-.577.393-.708.416-.13.691.226.734.402zm-3.035-4.258a.4.4 0 0 1 .565.002l1.413 1.414a.4.4 0 0 1 .003.565L7.182 9.8a.4.4 0 0 1-.565-.003L5.203 8.383a.4.4 0 0 1-.002-.565l6.512-6.512zm1.129-1.13a.601.601 0 0 1 .85 0l1.132 1.13a.602.602 0 0 1-.001.852l-.28.28a.401.401 0 0 1-.569 0l-1.413-1.413a.4.4 0 0 1 0-.567l.281-.281zm-9.267 11.25c.39.39 2.688-.876 2.688-.876.196-.103.227-.314.07-.47L4.92 8.665c-.157-.157-.369-.124-.47.07 0 0-1.265 2.3-.875 2.69z"/>
</svg>
