<svg xmlns="http://www.w3.org/2000/svg" width="15" height="15" viewBox="0 0 15 15">
    <path fill="#8E8E93" fill-rule="evenodd" d="M4.518.065A4.52 4.52 0 0 0 0 4.584v5.783a4.52 4.52 0 0 0 4.518 4.518h5.783a4.52 4.52 0 0 0 4.518-4.518V4.584A4.52 4.52 0 0 0 10.301.065H4.518zm0 1.085h5.783a3.414 3.414 0 0 1 3.434 3.434v5.783A3.414 3.414 0 0 1 10.3 13.8H4.518a3.414 3.414 0 0 1-3.434-3.433V4.584A3.414 3.414 0 0 1 4.518 1.15zm-.904 5.06a1.265 1.265 0 1 0 0 2.53 1.265 1.265 0 0 0 0-2.53zm3.796 0a1.265 1.265 0 1 0 0 2.53 1.265 1.265 0 0 0 0-2.53zm3.795 0a1.265 1.265 0 1 0 0 2.53 1.265 1.265 0 0 0 0-2.53z"/>
</svg>
